<mxfile host="app.diagrams.net" modified="2020-07-30T09:21:13.730Z" agent="5.0 (Macintosh; Intel Mac OS X 10_15_6) AppleWebKit/605.1.15 (KHTML, like Gecko) Version/13.1.2 Safari/605.1.15" etag="eGtkBYTI6AJiA03nDbfz" version="13.5.5" type="github">
  <diagram id="o2KsHawBitME4J8v7YTa" name="Page-1">
    <mxGraphModel dx="1106" dy="639" grid="1" gridSize="10" guides="1" tooltips="1" connect="1" arrows="1" fold="1" page="1" pageScale="1" pageWidth="1169" pageHeight="827" math="0" shadow="0">
      <root>
        <mxCell id="0" />
        <mxCell id="1" parent="0" />
        <mxCell id="v-f_laDZAkHmF94WgQyW-74" value="" style="rounded=0;whiteSpace=wrap;html=1;strokeColor=#FFFFFF;" parent="1" vertex="1">
          <mxGeometry y="40" width="1020" height="850" as="geometry" />
        </mxCell>
        <mxCell id="v-f_laDZAkHmF94WgQyW-48" value="" style="rounded=0;whiteSpace=wrap;html=1;strokeWidth=2;" parent="1" vertex="1">
          <mxGeometry x="10" y="680" width="730" height="200" as="geometry" />
        </mxCell>
        <mxCell id="v-f_laDZAkHmF94WgQyW-46" style="edgeStyle=orthogonalEdgeStyle;rounded=0;orthogonalLoop=1;jettySize=auto;html=1;exitX=0.5;exitY=1;exitDx=0;exitDy=0;entryX=0.5;entryY=0;entryDx=0;entryDy=0;endArrow=classic;endFill=1;strokeWidth=2;" parent="1" source="v-f_laDZAkHmF94WgQyW-35" target="v-f_laDZAkHmF94WgQyW-43" edge="1">
          <mxGeometry relative="1" as="geometry" />
        </mxCell>
        <mxCell id="v-f_laDZAkHmF94WgQyW-35" value="" style="rounded=0;whiteSpace=wrap;html=1;strokeWidth=2;" parent="1" vertex="1">
          <mxGeometry x="800" y="180" width="210" height="260" as="geometry" />
        </mxCell>
        <mxCell id="npR9B-OFplp2G-UIuWFT-7" style="edgeStyle=orthogonalEdgeStyle;rounded=0;orthogonalLoop=1;jettySize=auto;html=1;exitX=0.5;exitY=1;exitDx=0;exitDy=0;entryX=0.5;entryY=0;entryDx=0;entryDy=0;fillColor=#330000;strokeWidth=2;" edge="1" parent="1" source="v-f_laDZAkHmF94WgQyW-33" target="v-f_laDZAkHmF94WgQyW-37">
          <mxGeometry relative="1" as="geometry" />
        </mxCell>
        <mxCell id="v-f_laDZAkHmF94WgQyW-33" value="" style="rounded=0;whiteSpace=wrap;html=1;strokeWidth=2;" parent="1" vertex="1">
          <mxGeometry x="10" y="180" width="730" height="260" as="geometry" />
        </mxCell>
        <mxCell id="v-f_laDZAkHmF94WgQyW-29" value="" style="rounded=0;whiteSpace=wrap;html=1;dashed=1;" parent="1" vertex="1">
          <mxGeometry x="820" y="260" width="170" height="160" as="geometry" />
        </mxCell>
        <mxCell id="v-f_laDZAkHmF94WgQyW-7" value="&lt;b&gt;前置拦截器：&lt;/b&gt;记录子调用的 req" style="rounded=0;whiteSpace=wrap;html=1;" parent="1" vertex="1">
          <mxGeometry x="40" y="240" width="180" height="40" as="geometry" />
        </mxCell>
        <mxCell id="v-f_laDZAkHmF94WgQyW-24" style="edgeStyle=orthogonalEdgeStyle;rounded=0;orthogonalLoop=1;jettySize=auto;html=1;exitX=0.5;exitY=1;exitDx=0;exitDy=0;entryX=0;entryY=0.5;entryDx=0;entryDy=0;" parent="1" source="v-f_laDZAkHmF94WgQyW-8" target="v-f_laDZAkHmF94WgQyW-21" edge="1">
          <mxGeometry relative="1" as="geometry">
            <Array as="points">
              <mxPoint x="130" y="420" />
              <mxPoint x="760" y="420" />
              <mxPoint x="760" y="320" />
            </Array>
          </mxGeometry>
        </mxCell>
        <mxCell id="v-f_laDZAkHmF94WgQyW-8" value="&lt;b&gt;后置拦截器：&lt;/b&gt;记录子调用的 rsp" style="rounded=0;whiteSpace=wrap;html=1;" parent="1" vertex="1">
          <mxGeometry x="40" y="360" width="180" height="40" as="geometry" />
        </mxCell>
        <mxCell id="v-f_laDZAkHmF94WgQyW-9" value="&lt;b&gt;子调用1&lt;/b&gt;（正常访问外部依赖）" style="rounded=0;whiteSpace=wrap;html=1;" parent="1" vertex="1">
          <mxGeometry x="40" y="300" width="180" height="40" as="geometry" />
        </mxCell>
        <mxCell id="v-f_laDZAkHmF94WgQyW-11" value="&lt;b&gt;前置拦截器：&lt;/b&gt;记录子调用的 req" style="rounded=0;whiteSpace=wrap;html=1;" parent="1" vertex="1">
          <mxGeometry x="260" y="240" width="180" height="40" as="geometry" />
        </mxCell>
        <mxCell id="v-f_laDZAkHmF94WgQyW-25" style="edgeStyle=orthogonalEdgeStyle;rounded=0;orthogonalLoop=1;jettySize=auto;html=1;exitX=0.5;exitY=1;exitDx=0;exitDy=0;endArrow=none;endFill=0;" parent="1" source="v-f_laDZAkHmF94WgQyW-12" edge="1">
          <mxGeometry relative="1" as="geometry">
            <mxPoint x="350" y="420" as="targetPoint" />
          </mxGeometry>
        </mxCell>
        <mxCell id="v-f_laDZAkHmF94WgQyW-12" value="&lt;b&gt;后置拦截器：&lt;/b&gt;记录子调用的 rsp" style="rounded=0;whiteSpace=wrap;html=1;" parent="1" vertex="1">
          <mxGeometry x="260" y="360" width="180" height="40" as="geometry" />
        </mxCell>
        <mxCell id="v-f_laDZAkHmF94WgQyW-13" value="&lt;b&gt;子调用2&lt;/b&gt;（正常访问外部依赖）" style="rounded=0;whiteSpace=wrap;html=1;" parent="1" vertex="1">
          <mxGeometry x="260" y="300" width="180" height="40" as="geometry" />
        </mxCell>
        <mxCell id="v-f_laDZAkHmF94WgQyW-14" value="&lt;b&gt;前置拦截器：&lt;/b&gt;记录子调用的 req" style="rounded=0;whiteSpace=wrap;html=1;" parent="1" vertex="1">
          <mxGeometry x="520" y="240" width="180" height="40" as="geometry" />
        </mxCell>
        <mxCell id="v-f_laDZAkHmF94WgQyW-26" style="edgeStyle=orthogonalEdgeStyle;rounded=0;orthogonalLoop=1;jettySize=auto;html=1;exitX=0.5;exitY=1;exitDx=0;exitDy=0;endArrow=none;endFill=0;" parent="1" source="v-f_laDZAkHmF94WgQyW-15" edge="1">
          <mxGeometry relative="1" as="geometry">
            <mxPoint x="610" y="420" as="targetPoint" />
          </mxGeometry>
        </mxCell>
        <mxCell id="v-f_laDZAkHmF94WgQyW-15" value="&lt;b&gt;后置拦截器：&lt;/b&gt;记录子调用的 rsp" style="rounded=0;whiteSpace=wrap;html=1;" parent="1" vertex="1">
          <mxGeometry x="520" y="360" width="180" height="40" as="geometry" />
        </mxCell>
        <mxCell id="v-f_laDZAkHmF94WgQyW-16" value="&lt;b&gt;子调用N&lt;/b&gt;（正常访问外部依赖）" style="rounded=0;whiteSpace=wrap;html=1;" parent="1" vertex="1">
          <mxGeometry x="520" y="300" width="180" height="40" as="geometry" />
        </mxCell>
        <mxCell id="v-f_laDZAkHmF94WgQyW-18" value="..." style="text;html=1;strokeColor=none;fillColor=none;align=center;verticalAlign=middle;whiteSpace=wrap;rounded=0;" parent="1" vertex="1">
          <mxGeometry x="460" y="310" width="40" height="20" as="geometry" />
        </mxCell>
        <mxCell id="v-f_laDZAkHmF94WgQyW-21" value="&lt;b&gt;channel:buffer&lt;/b&gt;" style="shape=step;perimeter=stepPerimeter;whiteSpace=wrap;html=1;fixedSize=1;" parent="1" vertex="1">
          <mxGeometry x="840" y="300" width="140" height="40" as="geometry" />
        </mxCell>
        <mxCell id="v-f_laDZAkHmF94WgQyW-22" value="&lt;b&gt;channel:done&lt;/b&gt;" style="shape=step;perimeter=stepPerimeter;whiteSpace=wrap;html=1;fixedSize=1;" parent="1" vertex="1">
          <mxGeometry x="840" y="360" width="140" height="40" as="geometry" />
        </mxCell>
        <mxCell id="v-f_laDZAkHmF94WgQyW-27" value="&lt;b&gt;select&lt;/b&gt;" style="text;html=1;strokeColor=none;fillColor=none;align=center;verticalAlign=middle;whiteSpace=wrap;rounded=0;" parent="1" vertex="1">
          <mxGeometry x="880" y="270" width="40" height="20" as="geometry" />
        </mxCell>
        <mxCell id="v-f_laDZAkHmF94WgQyW-30" value="&lt;font size=&quot;3&quot;&gt;&lt;b&gt;辅助协程&lt;/b&gt;&lt;/font&gt;" style="text;html=1;strokeColor=none;fillColor=none;align=center;verticalAlign=middle;whiteSpace=wrap;rounded=0;dashed=1;" parent="1" vertex="1">
          <mxGeometry x="845" y="210" width="120" height="20" as="geometry" />
        </mxCell>
        <mxCell id="v-f_laDZAkHmF94WgQyW-36" value="&lt;font style=&quot;font-size: 16px&quot;&gt;&lt;b&gt;主调用&lt;/b&gt;（包括业务逻辑、子调用等）&lt;/font&gt;" style="text;html=1;strokeColor=none;fillColor=none;align=center;verticalAlign=middle;whiteSpace=wrap;rounded=0;" parent="1" vertex="1">
          <mxGeometry x="300" y="200" width="325" height="20" as="geometry" />
        </mxCell>
        <mxCell id="v-f_laDZAkHmF94WgQyW-38" style="edgeStyle=orthogonalEdgeStyle;rounded=0;orthogonalLoop=1;jettySize=auto;html=1;exitX=1;exitY=0.25;exitDx=0;exitDy=0;endArrow=none;endFill=0;" parent="1" source="v-f_laDZAkHmF94WgQyW-37" edge="1">
          <mxGeometry relative="1" as="geometry">
            <mxPoint x="760" y="420" as="targetPoint" />
          </mxGeometry>
        </mxCell>
        <mxCell id="v-f_laDZAkHmF94WgQyW-39" style="edgeStyle=orthogonalEdgeStyle;rounded=0;orthogonalLoop=1;jettySize=auto;html=1;exitX=1;exitY=0.75;exitDx=0;exitDy=0;entryX=0;entryY=0.5;entryDx=0;entryDy=0;" parent="1" source="v-f_laDZAkHmF94WgQyW-37" target="v-f_laDZAkHmF94WgQyW-22" edge="1">
          <mxGeometry relative="1" as="geometry">
            <Array as="points">
              <mxPoint x="780" y="500" />
              <mxPoint x="780" y="380" />
            </Array>
          </mxGeometry>
        </mxCell>
        <mxCell id="v-f_laDZAkHmF94WgQyW-37" value="&lt;b&gt;主调用后置拦截器：&lt;/b&gt;记录主调用 rsp，关闭辅助协程" style="rounded=0;whiteSpace=wrap;html=1;strokeWidth=2;" parent="1" vertex="1">
          <mxGeometry x="230" y="470" width="290" height="40" as="geometry" />
        </mxCell>
        <mxCell id="npR9B-OFplp2G-UIuWFT-5" style="edgeStyle=orthogonalEdgeStyle;rounded=0;orthogonalLoop=1;jettySize=auto;html=1;exitX=0.5;exitY=1;exitDx=0;exitDy=0;fillColor=#330000;strokeWidth=2;" edge="1" parent="1" source="v-f_laDZAkHmF94WgQyW-40" target="v-f_laDZAkHmF94WgQyW-33">
          <mxGeometry relative="1" as="geometry" />
        </mxCell>
        <mxCell id="npR9B-OFplp2G-UIuWFT-11" style="edgeStyle=orthogonalEdgeStyle;rounded=0;orthogonalLoop=1;jettySize=auto;html=1;exitX=1;exitY=0.5;exitDx=0;exitDy=0;strokeWidth=2;fillColor=#330000;dashed=1;" edge="1" parent="1" source="v-f_laDZAkHmF94WgQyW-40" target="v-f_laDZAkHmF94WgQyW-35">
          <mxGeometry relative="1" as="geometry" />
        </mxCell>
        <mxCell id="v-f_laDZAkHmF94WgQyW-40" value="&lt;b&gt;主调用前置拦截器：&lt;/b&gt;初始化双引擎状态，记录主调用 req，开启辅助协程" style="rounded=0;whiteSpace=wrap;html=1;strokeWidth=2;" parent="1" vertex="1">
          <mxGeometry x="170" y="120" width="410" height="30" as="geometry" />
        </mxCell>
        <mxCell id="v-f_laDZAkHmF94WgQyW-42" value="&lt;font style=&quot;font-size: 24px&quot;&gt;录制模式（线上环境）&lt;/font&gt;" style="text;html=1;strokeColor=none;fillColor=none;align=center;verticalAlign=middle;whiteSpace=wrap;rounded=0;" parent="1" vertex="1">
          <mxGeometry x="240" y="60" width="280" height="30" as="geometry" />
        </mxCell>
        <mxCell id="v-f_laDZAkHmF94WgQyW-47" style="edgeStyle=orthogonalEdgeStyle;rounded=0;orthogonalLoop=1;jettySize=auto;html=1;exitX=0.5;exitY=1;exitDx=0;exitDy=0;entryX=0.5;entryY=0;entryDx=0;entryDy=0;endArrow=classic;endFill=1;strokeWidth=2;" parent="1" source="v-f_laDZAkHmF94WgQyW-43" target="v-f_laDZAkHmF94WgQyW-45" edge="1">
          <mxGeometry relative="1" as="geometry" />
        </mxCell>
        <mxCell id="v-f_laDZAkHmF94WgQyW-43" value="&lt;font style=&quot;font-size: 16px&quot;&gt;&lt;b&gt;双引擎 CKafka&amp;nbsp;&lt;/b&gt;&lt;/font&gt;" style="rounded=0;whiteSpace=wrap;html=1;strokeWidth=2;" parent="1" vertex="1">
          <mxGeometry x="835" y="550" width="140" height="60" as="geometry" />
        </mxCell>
        <mxCell id="v-f_laDZAkHmF94WgQyW-66" style="edgeStyle=orthogonalEdgeStyle;rounded=0;orthogonalLoop=1;jettySize=auto;html=1;exitX=0;exitY=0.5;exitDx=0;exitDy=0;entryX=1;entryY=0.5;entryDx=0;entryDy=0;endArrow=classic;endFill=1;" parent="1" source="v-f_laDZAkHmF94WgQyW-45" target="v-f_laDZAkHmF94WgQyW-49" edge="1">
          <mxGeometry relative="1" as="geometry">
            <Array as="points">
              <mxPoint x="780" y="770" />
              <mxPoint x="780" y="860" />
              <mxPoint x="240" y="860" />
              <mxPoint x="240" y="760" />
            </Array>
          </mxGeometry>
        </mxCell>
        <mxCell id="v-f_laDZAkHmF94WgQyW-45" value="&lt;font style=&quot;font-size: 16px&quot;&gt;&lt;b&gt;双引擎 Mock Server&amp;nbsp;&lt;/b&gt;&lt;/font&gt;" style="rounded=0;whiteSpace=wrap;html=1;strokeWidth=2;" parent="1" vertex="1">
          <mxGeometry x="820" y="740" width="170" height="60" as="geometry" />
        </mxCell>
        <mxCell id="v-f_laDZAkHmF94WgQyW-49" value="&lt;b&gt;前置拦截器：&lt;/b&gt;回放子调用的 rsp" style="rounded=0;whiteSpace=wrap;html=1;" parent="1" vertex="1">
          <mxGeometry x="40" y="740" width="180" height="40" as="geometry" />
        </mxCell>
        <mxCell id="v-f_laDZAkHmF94WgQyW-51" value="&lt;b&gt;子调用1&lt;/b&gt;（直接返回录制结果）" style="rounded=0;whiteSpace=wrap;html=1;" parent="1" vertex="1">
          <mxGeometry x="41" y="800" width="180" height="40" as="geometry" />
        </mxCell>
        <mxCell id="v-f_laDZAkHmF94WgQyW-52" value="&lt;b&gt;前置拦截器：&lt;/b&gt;回放子调用的 rsp" style="rounded=0;whiteSpace=wrap;html=1;" parent="1" vertex="1">
          <mxGeometry x="260" y="740" width="180" height="40" as="geometry" />
        </mxCell>
        <mxCell id="v-f_laDZAkHmF94WgQyW-55" value="&lt;b&gt;子调用2&lt;/b&gt;（直接返回录制结果）" style="rounded=0;whiteSpace=wrap;html=1;" parent="1" vertex="1">
          <mxGeometry x="260" y="800" width="180" height="40" as="geometry" />
        </mxCell>
        <mxCell id="v-f_laDZAkHmF94WgQyW-70" style="edgeStyle=orthogonalEdgeStyle;rounded=0;orthogonalLoop=1;jettySize=auto;html=1;entryX=1;entryY=0.5;entryDx=0;entryDy=0;endArrow=classic;endFill=1;" parent="1" target="v-f_laDZAkHmF94WgQyW-52" edge="1">
          <mxGeometry relative="1" as="geometry">
            <mxPoint x="480" y="860" as="sourcePoint" />
          </mxGeometry>
        </mxCell>
        <mxCell id="v-f_laDZAkHmF94WgQyW-56" value="&lt;b&gt;前置拦截器：&lt;/b&gt;回放子调用的 rsp" style="rounded=0;whiteSpace=wrap;html=1;" parent="1" vertex="1">
          <mxGeometry x="520" y="740" width="180" height="40" as="geometry" />
        </mxCell>
        <mxCell id="v-f_laDZAkHmF94WgQyW-59" value="&lt;b&gt;子调用N&lt;/b&gt;（直接返回录制结果）" style="rounded=0;whiteSpace=wrap;html=1;" parent="1" vertex="1">
          <mxGeometry x="520" y="800" width="180" height="40" as="geometry" />
        </mxCell>
        <mxCell id="v-f_laDZAkHmF94WgQyW-60" value="..." style="text;html=1;strokeColor=none;fillColor=none;align=center;verticalAlign=middle;whiteSpace=wrap;rounded=0;" parent="1" vertex="1">
          <mxGeometry x="460" y="810" width="40" height="20" as="geometry" />
        </mxCell>
        <mxCell id="v-f_laDZAkHmF94WgQyW-62" value="&lt;font style=&quot;font-size: 24px&quot;&gt;回放模式（线下环境）&lt;/font&gt;" style="text;html=1;strokeColor=none;fillColor=none;align=center;verticalAlign=middle;whiteSpace=wrap;rounded=0;" parent="1" vertex="1">
          <mxGeometry x="240" y="565" width="280" height="30" as="geometry" />
        </mxCell>
        <mxCell id="v-f_laDZAkHmF94WgQyW-63" value="" style="endArrow=none;dashed=1;html=1;strokeWidth=2;" parent="1" edge="1">
          <mxGeometry width="50" height="50" relative="1" as="geometry">
            <mxPoint x="20" y="540" as="sourcePoint" />
            <mxPoint x="740" y="540" as="targetPoint" />
          </mxGeometry>
        </mxCell>
        <mxCell id="npR9B-OFplp2G-UIuWFT-9" style="edgeStyle=orthogonalEdgeStyle;rounded=0;orthogonalLoop=1;jettySize=auto;html=1;exitX=0.5;exitY=1;exitDx=0;exitDy=0;entryX=0.5;entryY=0;entryDx=0;entryDy=0;strokeWidth=3;fillColor=#330000;" edge="1" parent="1" source="v-f_laDZAkHmF94WgQyW-64" target="v-f_laDZAkHmF94WgQyW-48">
          <mxGeometry relative="1" as="geometry" />
        </mxCell>
        <mxCell id="v-f_laDZAkHmF94WgQyW-64" value="&lt;b&gt;主调用前置拦截器：&lt;/b&gt;初始化双引擎状态" style="rounded=0;whiteSpace=wrap;html=1;strokeWidth=2;" parent="1" vertex="1">
          <mxGeometry x="250" y="610" width="250" height="40" as="geometry" />
        </mxCell>
        <mxCell id="v-f_laDZAkHmF94WgQyW-72" style="edgeStyle=orthogonalEdgeStyle;rounded=0;orthogonalLoop=1;jettySize=auto;html=1;entryX=1;entryY=0.5;entryDx=0;entryDy=0;endArrow=classic;endFill=1;" parent="1" target="v-f_laDZAkHmF94WgQyW-56" edge="1">
          <mxGeometry relative="1" as="geometry">
            <mxPoint x="760" y="860" as="sourcePoint" />
            <mxPoint x="720" y="760" as="targetPoint" />
            <Array as="points">
              <mxPoint x="720" y="860" />
              <mxPoint x="720" y="760" />
            </Array>
          </mxGeometry>
        </mxCell>
        <mxCell id="npR9B-OFplp2G-UIuWFT-1" style="edgeStyle=orthogonalEdgeStyle;rounded=0;orthogonalLoop=1;jettySize=auto;html=1;exitX=0.5;exitY=1;exitDx=0;exitDy=0;" edge="1" parent="1" source="v-f_laDZAkHmF94WgQyW-40" target="v-f_laDZAkHmF94WgQyW-40">
          <mxGeometry relative="1" as="geometry" />
        </mxCell>
        <mxCell id="npR9B-OFplp2G-UIuWFT-8" value="&lt;font style=&quot;font-size: 16px&quot;&gt;&lt;b&gt;主调用&lt;/b&gt;（包括业务逻辑、子调用等）&lt;/font&gt;" style="text;html=1;strokeColor=none;fillColor=none;align=center;verticalAlign=middle;whiteSpace=wrap;rounded=0;" vertex="1" parent="1">
          <mxGeometry x="290" y="700" width="325" height="20" as="geometry" />
        </mxCell>
      </root>
    </mxGraphModel>
  </diagram>
</mxfile>
